{
  "accessors": [
    {
      "bufferView": 3,
      "componentType": 5126,
      "count": 2901,
      "max": [
        -0.06640163064002991,
        1.5478973388671875,
        0.25200212001800537
      ],
      "min": [
        -0.246835857629776,
        1.3454700708389282,
        0.11633563786745071
      ],
      "type": "VEC3"
    },
    {
      "bufferView": 3,
      "byteOffset": 34812,
      "componentType": 5126,
      "count": 2901,
      "max": [
        0.9990751147270203,
        1,
        0.9978563189506531
      ],
      "min": [
        -0.9997451901435852,
        -1,
        -0.9978562593460083
      ],
      "type": "VEC3"
    },
    {
      "bufferView": 2,
      "componentType": 5126,
      "count": 2901,
      "max": [
        0.8838217854499817,
        0.9701794981956482
      ],
      "min": [
        0.5332057476043701,
        0.5485641360282898
      ],
      "type": "VEC2"
    },
    {
      "bufferView": 1,
      "componentType": 5125,
      "count": 14784,
      "type": "SCALAR"
    },
    {
      "bufferView": 3,
      "byteOffset": 69624,
      "componentType": 5126,
      "count": 1245,
      "max": [
        -0.17282436788082123,
        1.4791266918182373,
        0.2422008514404297
      ],
      "min": [
        -0.18433541059494019,
        1.4668270349502563,
        0.23492372035980225
      ],
      "type": "VEC3"
    },
    {
      "bufferView": 3,
      "byteOffset": 84564,
      "componentType": 5126,
      "count": 1245,
      "max": [
        0.8529412150382996,
        0.9908447265625,
        0.9999918341636658
      ],
      "min": [
        -0.999695360660553,
        -0.9908488988876343,
        -0.2747464179992676
      ],
      "type": "VEC3"
    },
    {
      "bufferView": 2,
      "byteOffset": 23208,
      "componentType": 5126,
      "count": 1245,
      "max": [
        0.8032718896865845,
        0.7894128561019897
      ],
      "min": [
        0.7711086869239807,
        0.7750993967056274
      ],
      "type": "VEC2"
    },
    {
      "bufferView": 1,
      "byteOffset": 59136,
      "componentType": 5125,
      "count": 5952,
      "type": "SCALAR"
    },
    {
      "bufferView": 3,
      "byteOffset": 99504,
      "componentType": 5126,
      "count": 599,
      "max": [
        0.3093017637729645,
        1.2454499006271362,
        0.04859582334756851
      ],
      "min": [
        0.24056710302829742,
        0.9793104529380798,
        -0.022714704275131226
      ],
      "type": "VEC3"
    },
    {
      "bufferView": 3,
      "byteOffset": 106692,
      "componentType": 5126,
      "count": 599,
      "max": [
        0.9999959468841553,
        0.9999988079071045,
        0.9999999403953552
      ],
      "min": [
        -1,
        -0.9999665021896362,
        -1
      ],
      "type": "VEC3"
    },
    {
      "bufferView": 2,
      "byteOffset": 33168,
      "componentType": 5126,
      "count": 599,
      "max": [
        0.7706824541091919,
        0.9839075207710266
      ],
      "min": [
        0.48732057213783264,
        0.4286864101886749
      ],
      "type": "VEC2"
    },
    {
      "bufferView": 1,
      "byteOffset": 82944,
      "componentType": 5125,
      "count": 2496,
      "type": "SCALAR"
    },
    {
      "bufferView": 3,
      "byteOffset": 113880,
      "componentType": 5126,
      "count": 413,
      "max": [
        0.3118564188480377,
        1.2174153327941895,
        0.015288221649825573
      ],
      "min": [
        0.30850890278816223,
        1.2123634815216064,
        0.010236344300210476
      ],
      "type": "VEC3"
    },
    {
      "bufferView": 3,
      "byteOffset": 118836,
      "componentType": 5126,
      "count": 413,
      "max": [
        1,
        0.9999934434890747,
        0.9999933838844299
      ],
      "min": [
        -0.08120132982730865,
        -0.9999934434890747,
        -0.9999933838844299
      ],
      "type": "VEC3"
    },
    {
      "bufferView": 2,
      "byteOffset": 37960,
      "componentType": 5126,
      "count": 413,
      "max": [
        0.7950883507728577,
        0.7820557951927185
      ],
      "min": [
        0.786531925201416,
        0.7750993967056274
      ],
      "type": "VEC2"
    },
    {
      "bufferView": 1,
      "byteOffset": 92928,
      "componentType": 5125,
      "count": 1680,
      "type": "SCALAR"
    },
    {
      "bufferView": 3,
      "byteOffset": 123792,
      "componentType": 5126,
      "count": 768,
      "max": [
        1.2187448740005493,
        2.474318265914917,
        0.13981422781944275
      ],
      "min": [
        -1.3620531558990479,
        2.2847578525543213,
        -0.00010196735092904419
      ],
      "type": "VEC3"
    },
    {
      "bufferView": 3,
      "byteOffset": 133008,
      "componentType": 5126,
      "count": 768,
      "max": [
        0.9999989867210388,
        0.14552506804466248,
        0.9969338178634644
      ],
      "min": [
        -0.9999863505363464,
        -0.7486774921417236,
        -0.9990498423576355
      ],
      "type": "VEC3"
    },
    {
      "bufferView": 2,
      "byteOffset": 41264,
      "componentType": 5126,
      "count": 768,
      "max": [
        1.0000001192092896,
        1
      ],
      "min": [
        -0.3070727586746216,
        0
      ],
      "type": "VEC2"
    },
    {
      "bufferView": 1,
      "byteOffset": 99648,
      "componentType": 5125,
      "count": 3621,
      "type": "SCALAR"
    },
    {
      "bufferView": 3,
      "byteOffset": 142224,
      "componentType": 5126,
      "count": 24363,
      "max": [
        0.15032930672168732,
        2.7740283012390137,
        0.1666736751794815
      ],
      "min": [
        -0.26633989810943604,
        2.3891043663024902,
        -0.1920018047094345
      ],
      "type": "VEC3"
    },
    {
      "bufferView": 3,
      "byteOffset": 434580,
      "componentType": 5126,
      "count": 24363,
      "max": [
        0.9999856948852539,
        0.999923825263977,
        0.9999909400939941
      ],
      "min": [
        -0.9999761581420898,
        -0.9996834397315979,
        -0.9999995827674866
      ],
      "type": "VEC3"
    },
    {
      "bufferView": 2,
      "byteOffset": 47408,
      "componentType": 5126,
      "count": 24363,
      "max": [
        1.0000001192092896,
        1.0000001192092896
      ],
      "min": [
        0,
        0
      ],
      "type": "VEC2"
    },
    {
      "bufferView": 1,
      "byteOffset": 114132,
      "componentType": 5125,
      "count": 116208,
      "type": "SCALAR"
    },
    {
      "bufferView": 3,
      "byteOffset": 726936,
      "componentType": 5126,
      "count": 8550,
      "max": [
        0.8536797165870667,
        2.2118735313415527,
        0.2174542248249054
      ],
      "min": [
        -0.8536797165870667,
        1.5079671144485474,
        -0.18864551186561584
      ],
      "type": "VEC3"
    },
    {
      "bufferView": 3,
      "byteOffset": 829536,
      "componentType": 5126,
      "count": 8550,
      "max": [
        0.9998956918716431,
        0.9999951124191284,
        0.9999993443489075
      ],
      "min": [
        -0.9998956918716431,
        -0.9999974966049194,
        -0.9994891881942749
      ],
      "type": "VEC3"
    },
    {
      "bufferView": 2,
      "byteOffset": 242312,
      "componentType": 5126,
      "count": 8550,
      "max": [
        0.8415771722793579,
        0.4880468249320984
      ],
      "min": [
        0.010661215521395206,
        0.010661182925105095
      ],
      "type": "VEC2"
    },
    {
      "bufferView": 1,
      "byteOffset": 578964,
      "componentType": 5125,
      "count": 43680,
      "type": "SCALAR"
    },
    {
      "bufferView": 3,
      "byteOffset": 932136,
      "componentType": 5126,
      "count": 688,
      "max": [
        0.15815871953964233,
        2.3377130031585693,
        0.19663678109645844
      ],
      "min": [
        -0.15815873444080353,
        2.147803544998169,
        -0.10782180726528168
      ],
      "type": "VEC3"
    },
    {
      "bufferView": 3,
      "byteOffset": 940392,
      "componentType": 5126,
      "count": 688,
      "max": [
        0.9999997019767761,
        0.9998533725738525,
        1
      ],
      "min": [
        -0.9999997019767761,
        -0.9998779892921448,
        -1
      ],
      "type": "VEC3"
    },
    {
      "bufferView": 2,
      "byteOffset": 310712,
      "componentType": 5126,
      "count": 688,
      "max": [
        0.9398202300071716,
        0.8029109239578247
      ],
      "min": [
        0.20280064642429352,
        0.010661199688911438
      ],
      "type": "VEC2"
    },
    {
      "bufferView": 1,
      "byteOffset": 753684,
      "componentType": 5125,
      "count": 2832,
      "type": "SCALAR"
    },
    {
      "bufferView": 3,
      "byteOffset": 948648,
      "componentType": 5126,
      "count": 1283,
      "max": [
        0.29767441749572754,
        2.2540135383605957,
        0.22185324132442474
      ],
      "min": [
        -0.29767441749572754,
        2.009134292602539,
        -0.13716675341129303
      ],
      "type": "VEC3"
    },
    {
      "bufferView": 3,
      "byteOffset": 964044,
      "componentType": 5126,
      "count": 1283,
      "max": [
        0.9953183531761169,
        0.9976761937141418,
        0.9999806880950928
      ],
      "min": [
        -0.9953183531761169,
        -0.998032808303833,
        -0.9944924712181091
      ],
      "type": "VEC3"
    },
    {
      "bufferView": 2,
      "byteOffset": 316216,
      "componentType": 5126,
      "count": 1283,
      "max": [
        0.8227596282958984,
        0.9880577325820923
      ],
      "min": [
        0.010661200620234013,
        0.4869610071182251
      ],
      "type": "VEC2"
    },
    {
      "bufferView": 1,
      "byteOffset": 765012,
      "componentType": 5125,
      "count": 5184,
      "type": "SCALAR"
    },
    {
      "bufferView": 3,
      "byteOffset": 979440,
      "componentType": 5126,
      "count": 4350,
      "max": [
        0.25160691142082214,
        1.514649748802185,
        0.16653789579868317
      ],
      "min": [
        -0.25147736072540283,
        0.24065609276294708,
        -0.14956048130989075
      ],
      "type": "VEC3"
    },
    {
      "bufferView": 3,
      "byteOffset": 1031640,
      "componentType": 5126,
      "count": 4350,
      "max": [
        0.9999659657478333,
        0.338390052318573,
        0.9997777938842773
      ],
      "min": [
        -0.9999949932098389,
        -0.9966049790382385,
        -0.9999945163726807
      ],
      "type": "VEC3"
    },
    {
      "bufferView": 2,
      "byteOffset": 326480,
      "componentType": 5126,
      "count": 4350,
      "max": [
        0.9909642934799194,
        0.7351941466331482
      ],
      "min": [
        0.00028492978890426457,
        0.014236710034310818
      ],
      "type": "VEC2"
    },
    {
      "bufferView": 1,
      "byteOffset": 785748,
      "componentType": 5125,
      "count": 20352,
      "type": "SCALAR"
    },
    {
      "bufferView": 3,
      "byteOffset": 1083840,
      "componentType": 5126,
      "count": 1424,
      "max": [
        0.23537470400333405,
        0.24419145286083221,
        0.12329017370939255
      ],
      "min": [
        -0.23537470400333405,
        -0.0002610664814710617,
        -0.2606600224971771
      ],
      "type": "VEC3"
    },
    {
      "bufferView": 3,
      "byteOffset": 1100928,
      "componentType": 5126,
      "count": 1424,
      "max": [
        1,
        1,
        1
      ],
      "min": [
        -1,
        -1,
        -1
      ],
      "type": "VEC3"
    },
    {
      "bufferView": 2,
      "byteOffset": 361280,
      "componentType": 5126,
      "count": 1424,
      "max": [
        0.6885913014411926,
        0.9709646105766296
      ],
      "min": [
        0.014775395393371582,
        0.5157070755958557
      ],
      "type": "VEC2"
    },
    {
      "bufferView": 1,
      "byteOffset": 867156,
      "componentType": 5125,
      "count": 7200,
      "type": "SCALAR"
    },
    {
      "bufferView": 3,
      "byteOffset": 1118016,
      "componentType": 5126,
      "count": 1064,
      "max": [
        0.21565616130828857,
        0.07741988450288773,
        -0.15431496500968933
      ],
      "min": [
        -0.21565616130828857,
        0.02178950421512127,
        -0.24462632834911346
      ],
      "type": "VEC3"
    },
    {
      "bufferView": 3,
      "byteOffset": 1130784,
      "componentType": 5126,
      "count": 1064,
      "max": [
        0.9999906420707703,
        0.990830659866333,
        0.420168936252594
      ],
      "min": [
        -0.9999906420707703,
        -0.9994906187057495,
        -0.9996534585952759
      ],
      "type": "VEC3"
    },
    {
      "bufferView": 2,
      "byteOffset": 372672,
      "componentType": 5126,
      "count": 1064,
      "max": [
        0.381708025932312,
        0.9913262128829956
      ],
      "min": [
        0.0492246150970459,
        0.7522068619728088
      ],
      "type": "VEC2"
    },
    {
      "bufferView": 1,
      "byteOffset": 895956,
      "componentType": 5125,
      "count": 4464,
      "type": "SCALAR"
    },
    {
      "bufferView": 3,
      "byteOffset": 1143552,
      "componentType": 5126,
      "count": 730,
      "max": [
        0.9692807793617249,
        2.1391491889953613,
        0.10020581632852554
      ],
      "min": [
        -0.9692807793617249,
        2.0467453002929688,
        0.007801302708685398
      ],
      "type": "VEC3"
    },
    {
      "bufferView": 3,
      "byteOffset": 1152312,
      "componentType": 5126,
      "count": 730,
      "max": [
        1,
        0.9999759793281555,
        0.9999759793281555
      ],
      "min": [
        -1,
        -0.9999759793281555,
        -0.9999759197235107
      ],
      "type": "VEC3"
    },
    {
      "bufferView": 2,
      "byteOffset": 381184,
      "componentType": 5126,
      "count": 730,
      "max": [
        0.9715561866760254,
        0.8797594308853149
      ],
      "min": [
        0.8440819382667542,
        0.6966023445129395
      ],
      "type": "VEC2"
    },
    {
      "bufferView": 1,
      "byteOffset": 913812,
      "componentType": 5125,
      "count": 2880,
      "type": "SCALAR"
    },
    {
      "bufferView": 3,
      "byteOffset": 1161072,
      "componentType": 5126,
      "count": 2040,
      "max": [
        1.2509690523147583,
        2.125563383102417,
        0.13896358013153076
      ],
      "min": [
        -1.2509688138961792,
        2.057400941848755,
        -0.09526385366916656
      ],
      "type": "VEC3"
    },
    {
      "bufferView": 3,
      "byteOffset": 1185552,
      "componentType": 5126,
      "count": 2040,
      "max": [
        0.99910569190979,
        0.9990097284317017,
        0.9999809861183167
      ],
      "min": [
        -0.9991067051887512,
        -0.9999828338623047,
        -0.9999886155128479
      ],
      "type": "VEC3"
    },
    {
      "bufferView": 2,
      "byteOffset": 387024,
      "componentType": 5126,
      "count": 2040,
      "max": [
        0.9893388152122498,
        0.9891123175621033
      ],
      "min": [
        0.010661199688911438,
        0.26120859384536743
      ],
      "type": "VEC2"
    },
    {
      "bufferView": 1,
      "byteOffset": 925332,
      "componentType": 5125,
      "count": 9456,
      "type": "SCALAR"
    },
    {
      "bufferView": 3,
      "byteOffset": 1210032,
      "componentType": 5126,
      "count": 304,
      "max": [
        0.12170708924531937,
        2.575930118560791,
        0.14112992584705353
      ],
      "min": [
        -0.12841074168682098,
        2.385488986968994,
        -0.13814900815486908
      ],
      "type": "VEC3"
    },
    {
      "bufferView": 3,
      "byteOffset": 1213680,
      "componentType": 5126,
      "count": 304,
      "max": [
        0.9992632865905762,
        0.7267781496047974,
        0.9998795390129089
      ],
      "min": [
        -0.9971835613250732,
        -0.7019262909889221,
        -0.9923000931739807
      ],
      "type": "VEC3"
    },
    {
      "bufferView": 2,
      "byteOffset": 403344,
      "componentType": 5126,
      "count": 304,
      "max": [
        0.6974359750747681,
        0.7926785349845886
      ],
      "min": [
        0.5467140078544617,
        0.00857418030500412
      ],
      "type": "VEC2"
    },
    {
      "bufferView": 1,
      "byteOffset": 963156,
      "componentType": 5125,
      "count": 1224,
      "type": "SCALAR"
    },
    {
      "bufferView": 3,
      "byteOffset": 1217328,
      "componentType": 5126,
      "count": 5103,
      "max": [
        0.14705687761306763,
        2.477482795715332,
        0.16016529500484467
      ],
      "min": [
        -0.14705690741539001,
        2.1331467628479004,
        -0.15290185809135437
      ],
      "type": "VEC3"
    },
    {
      "bufferView": 3,
      "byteOffset": 1278564,
      "componentType": 5126,
      "count": 5103,
      "max": [
        0.9997692704200745,
        0.9134231805801392,
        0.9999997615814209
      ],
      "min": [
        -0.9997692704200745,
        -0.9999266266822815,
        -0.9993264675140381
      ],
      "type": "VEC3"
    },
    {
      "bufferView": 2,
      "byteOffset": 405776,
      "componentType": 5126,
      "count": 5103,
      "max": [
        0.9392906427383423,
        0.8136358261108398
      ],
      "min": [
        0.028664037585258484,
        0.0059816837310791016
      ],
      "type": "VEC2"
    },
    {
      "bufferView": 1,
      "byteOffset": 968052,
      "componentType": 5125,
      "count": 24192,
      "type": "SCALAR"
    },
    {
      "bufferView": 3,
      "byteOffset": 1339800,
      "componentType": 5126,
      "count": 3115,
      "max": [
        5.95693826675415,
        -113.65910339355469,
        -6.442782878875732
      ],
      "min": [
        -5.29152774810791,
        -122.67334747314453,
        -10.504598617553711
      ],
      "type": "VEC3"
    },
    {
      "bufferView": 3,
      "byteOffset": 1377180,
      "componentType": 5126,
      "count": 3115,
      "max": [
        0.9915794134140015,
        0.9987680912017822,
        0.9999936819076538
      ],
      "min": [
        -0.9994153380393982,
        -0.9986721873283386,
        -0.9999122619628906
      ],
      "type": "VEC3"
    },
    {
      "bufferView": 2,
      "byteOffset": 446600,
      "componentType": 5126,
      "count": 3115,
      "max": [
        0.6747323274612427,
        0.9947840571403503
      ],
      "min": [
        0.4755968451499939,
        0.8235098719596863
      ],
      "type": "VEC2"
    },
    {
      "bufferView": 1,
      "byteOffset": 1064820,
      "componentType": 5125,
      "count": 14976,
      "type": "SCALAR"
    },
    {
      "bufferView": 3,
      "byteOffset": 1414560,
      "componentType": 5126,
      "count": 651,
      "max": [
        0.12403035163879395,
        2.477623224258423,
        0.046778421849012375
      ],
      "min": [
        0.09554732590913773,
        2.4000425338745117,
        -0.007915869355201721
      ],
      "type": "VEC3"
    },
    {
      "bufferView": 3,
      "byteOffset": 1422372,
      "componentType": 5126,
      "count": 651,
      "max": [
        0.999241828918457,
        0.9301392436027527,
        0.9911097288131714
      ],
      "min": [
        -0.9956019520759583,
        -0.991221010684967,
        -0.9903760552406311
      ],
      "type": "VEC3"
    },
    {
      "bufferView": 2,
      "byteOffset": 471520,
      "componentType": 5126,
      "count": 651,
      "max": [
        0.4176929295063019,
        0.9863898158073425
      ],
      "min": [
        0.057731859385967255,
        0.779987633228302
      ],
      "type": "VEC2"
    },
    {
      "bufferView": 1,
      "byteOffset": 1124724,
      "componentType": 5125,
      "count": 2643,
      "type": "SCALAR"
    },
    {
      "bufferView": 3,
      "byteOffset": 1430184,
      "componentType": 5126,
      "count": 640,
      "max": [
        0.19044379889965057,
        2.0404655933380127,
        -0.06692398339509964
      ],
      "min": [
        -0.19044381380081177,
        1.821058988571167,
        -0.16552475094795227
      ],
      "type": "VEC3"
    },
    {
      "bufferView": 3,
      "byteOffset": 1437864,
      "componentType": 5126,
      "count": 640,
      "max": [
        0.9995635151863098,
        0.9966813325881958,
        0.978554368019104
      ],
      "min": [
        -0.9995635151863098,
        -0.995391309261322,
        -0.9765124917030334
      ],
      "type": "VEC3"
    },
    {
      "bufferView": 2,
      "byteOffset": 476728,
      "componentType": 5126,
      "count": 640,
      "max": [
        0.9830915331840515,
        0.9540505409240723
      ],
      "min": [
        0.2028007060289383,
        0.48696109652519226
      ],
      "type": "VEC2"
    },
    {
      "bufferView": 1,
      "byteOffset": 1135296,
      "componentType": 5125,
      "count": 2496,
      "type": "SCALAR"
    },
    {
      "bufferView": 3,
      "byteOffset": 1445544,
      "componentType": 5126,
      "count": 286,
      "max": [
        0.2549799680709839,
        1.0875672101974487,
        0.1390075385570526
      ],
      "min": [
        0.0037015953566879034,
        1.0446341037750244,
        -0.14927907288074493
      ],
      "type": "VEC3"
    },
    {
      "bufferView": 3,
      "byteOffset": 1448976,
      "componentType": 5126,
      "count": 286,
      "max": [
        0.9999045133590698,
        0.9462778568267822,
        0.9966556429862976
      ],
      "min": [
        -0.9998986721038818,
        -0.9743262529373169,
        -0.9989516735076904
      ],
      "type": "VEC3"
    },
    {
      "bufferView": 2,
      "byteOffset": 481848,
      "componentType": 5126,
      "count": 286,
      "max": [
        0.9765615463256836,
        0.9868552684783936
      ],
      "min": [
        0.930206298828125,
        0.5669816732406616
      ],
      "type": "VEC2"
    },
    {
      "bufferView": 1,
      "byteOffset": 1145280,
      "componentType": 5125,
      "count": 1152,
      "type": "SCALAR"
    },
    {
      "bufferView": 3,
      "byteOffset": 1452408,
      "componentType": 5126,
      "count": 345,
      "max": [
        0.06078961119055748,
        2.555490732192993,
        -0.10839834064245224
      ],
      "min": [
        -0.07482121139764786,
        2.4590842723846436,
        -0.1410883516073227
      ],
      "type": "VEC3"
    },
    {
      "bufferView": 3,
      "byteOffset": 1456548,
      "componentType": 5126,
      "count": 345,
      "max": [
        0.9828939437866211,
        0.9766377806663513,
        0.9813029766082764
      ],
      "min": [
        -0.9854512810707092,
        -0.9860771298408508,
        -0.9863343834877014
      ],
      "type": "VEC3"
    },
    {
      "bufferView": 2,
      "byteOffset": 484136,
      "componentType": 5126,
      "count": 345,
      "max": [
        0.982063889503479,
        0.9727628827095032
      ],
      "min": [
        0.7420052886009216,
        0.01798931695520878
      ],
      "type": "VEC2"
    },
    {
      "bufferView": 1,
      "byteOffset": 1149888,
      "componentType": 5125,
      "count": 1044,
      "type": "SCALAR"
    },
    {
      "bufferView": 3,
      "byteOffset": 1460688,
      "componentType": 5126,
      "count": 638,
      "max": [
        1.0377434492111206,
        2.123037576675415,
        0.09425467997789383
      ],
      "min": [
        -1.0377435684204102,
        2.113058090209961,
        0.018571604043245316
      ],
      "type": "VEC3"
    },
    {
      "bufferView": 3,
      "byteOffset": 1468344,
      "componentType": 5126,
      "count": 638,
      "max": [
        0.9997764229774475,
        0.9996428489685059,
        0.9933751821517944
      ],
      "min": [
        -0.9997768998146057,
        -0.9997040629386902,
        -0.9990130662918091
      ],
      "type": "VEC3"
    },
    {
      "bufferView": 2,
      "byteOffset": 486896,
      "componentType": 5126,
      "count": 638,
      "max": [
        0.9807429909706116,
        0.9797776937484741
      ],
      "min": [
        0.307035356760025,
        0.3552258014678955
      ],
      "type": "VEC2"
    },
    {
      "bufferView": 1,
      "byteOffset": 1154064,
      "componentType": 5125,
      "count": 2592,
      "type": "SCALAR"
    },
    {
      "bufferView": 5,
      "componentType": 5126,
      "count": 89,
      "max": [
        100,
        0.9984619617462158,
        0.8069724440574646,
        0,
        0.9906413555145264,
        100.00000762939453,
        0.20189741253852844,
        0,
        0.15249048173427582,
        0.4135122299194336,
        100,
        0,
        2.2628395557403564,
        1.648351788520813,
        0.5154872536659241,
        1
      ],
      "min": [
        -1,
        -0.9984618425369263,
        -0.8069723844528198,
        0,
        -0.9906413555145264,
        -1.0000001192092896,
        -0.9704374074935913,
        0,
        -0.15249045193195343,
        -0.9704373478889465,
        -0.9958512187004089,
        0,
        -2.2628397941589355,
        -2.2709810733795166,
        -0.6367602944374084,
        1
      ],
      "type": "MAT4"
    },
    {
      "bufferView": 0,
      "componentType": 5123,
      "count": 2901,
      "type": "VEC4"
    },
    {
      "bufferView": 4,
      "componentType": 5126,
      "count": 2901,
      "max": [
        1,
        0,
        0,
        0
      ],
      "min": [
        1,
        0,
        0,
        0
      ],
      "type": "VEC4"
    },
    {
      "bufferView": 0,
      "byteOffset": 23208,
      "componentType": 5123,
      "count": 1245,
      "type": "VEC4"
    },
    {
      "bufferView": 4,
      "byteOffset": 46416,
      "componentType": 5126,
      "count": 1245,
      "max": [
        1,
        0,
        0,
        0
      ],
      "min": [
        1,
        0,
        0,
        0
      ],
      "type": "VEC4"
    },
    {
      "bufferView": 0,
      "byteOffset": 33168,
      "componentType": 5123,
      "count": 599,
      "type": "VEC4"
    },
    {
      "bufferView": 4,
      "byteOffset": 66336,
      "componentType": 5126,
      "count": 599,
      "max": [
        1,
        0,
        0,
        0
      ],
      "min": [
        1,
        0,
        0,
        0
      ],
      "type": "VEC4"
    },
    {
      "bufferView": 0,
      "byteOffset": 37960,
      "componentType": 5123,
      "count": 413,
      "type": "VEC4"
    },
    {
      "bufferView": 4,
      "byteOffset": 75920,
      "componentType": 5126,
      "count": 413,
      "max": [
        1,
        0,
        0,
        0
      ],
      "min": [
        1,
        0,
        0,
        0
      ],
      "type": "VEC4"
    },
    {
      "bufferView": 0,
      "byteOffset": 41264,
      "componentType": 5123,
      "count": 768,
      "type": "VEC4"
    },
    {
      "bufferView": 4,
      "byteOffset": 82528,
      "componentType": 5126,
      "count": 768,
      "max": [
        1,
        0,
        0,
        0
      ],
      "min": [
        1,
        0,
        0,
        0
      ],
      "type": "VEC4"
    },
    {
      "bufferView": 0,
      "byteOffset": 47408,
      "componentType": 5123,
      "count": 24363,
      "type": "VEC4"
    },
    {
      "bufferView": 4,
      "byteOffset": 94816,
      "componentType": 5126,
      "count": 24363,
      "max": [
        1,
        0,
        0,
        0
      ],
      "min": [
        1,
        0,
        0,
        0
      ],
      "type": "VEC4"
    },
    {
      "bufferView": 0,
      "byteOffset": 242312,
      "componentType": 5123,
      "count": 8550,
      "type": "VEC4"
    },
    {
      "bufferView": 4,
      "byteOffset": 484624,
      "componentType": 5126,
      "count": 8550,
      "max": [
        1,
        0.49869295954704285,
        0.3226706385612488,
        0.17934007942676544
      ],
      "min": [
        0.31378573179244995,
        0,
        0,
        0
      ],
      "type": "VEC4"
    },
    {
      "bufferView": 0,
      "byteOffset": 310712,
      "componentType": 5123,
      "count": 688,
      "type": "VEC4"
    },
    {
      "bufferView": 4,
      "byteOffset": 621424,
      "componentType": 5126,
      "count": 688,
      "max": [
        1,
        0,
        0,
        0
      ],
      "min": [
        1,
        0,
        0,
        0
      ],
      "type": "VEC4"
    },
    {
      "bufferView": 0,
      "byteOffset": 316216,
      "componentType": 5123,
      "count": 1283,
      "type": "VEC4"
    },
    {
      "bufferView": 4,
      "byteOffset": 632432,
      "componentType": 5126,
      "count": 1283,
      "max": [
        1,
        0,
        0,
        0
      ],
      "min": [
        1,
        0,
        0,
        0
      ],
      "type": "VEC4"
    },
    {
      "bufferView": 0,
      "byteOffset": 326480,
      "componentType": 5123,
      "count": 4350,
      "type": "VEC4"
    },
    {
      "bufferView": 4,
      "byteOffset": 652960,
      "componentType": 5126,
      "count": 4350,
      "max": [
        1,
        0.4998753070831299,
        0.3239741921424866,
        0.24576245248317719
      ],
      "min": [
        0.2572091221809387,
        0,
        0,
        0
      ],
      "type": "VEC4"
    },
    {
      "bufferView": 0,
      "byteOffset": 361280,
      "componentType": 5123,
      "count": 1424,
      "type": "VEC4"
    },
    {
      "bufferView": 4,
      "byteOffset": 722560,
      "componentType": 5126,
      "count": 1424,
      "max": [
        1,
        0.49448707699775696,
        0.09760919213294983,
        0
      ],
      "min": [
        0.5055128931999207,
        0,
        0,
        0
      ],
      "type": "VEC4"
    },
    {
      "bufferView": 0,
      "byteOffset": 372672,
      "componentType": 5123,
      "count": 1064,
      "type": "VEC4"
    },
    {
      "bufferView": 4,
      "byteOffset": 745344,
      "componentType": 5126,
      "count": 1064,
      "max": [
        1,
        0.01841985620558262,
        0,
        0
      ],
      "min": [
        0.9815801382064819,
        0,
        0,
        0
      ],
      "type": "VEC4"
    },
    {
      "bufferView": 0,
      "byteOffset": 381184,
      "componentType": 5123,
      "count": 730,
      "type": "VEC4"
    },
    {
      "bufferView": 4,
      "byteOffset": 762368,
      "componentType": 5126,
      "count": 730,
      "max": [
        1,
        0,
        0,
        0
      ],
      "min": [
        1,
        0,
        0,
        0
      ],
      "type": "VEC4"
    },
    {
      "bufferView": 0,
      "byteOffset": 387024,
      "componentType": 5123,
      "count": 2040,
      "type": "VEC4"
    },
    {
      "bufferView": 4,
      "byteOffset": 774048,
      "componentType": 5126,
      "count": 2040,
      "max": [
        1,
        0.4880191683769226,
        0.2926369905471802,
        0.2092622071504593
      ],
      "min": [
        0.2886752188205719,
        0,
        0,
        0
      ],
      "type": "VEC4"
    },
    {
      "bufferView": 0,
      "byteOffset": 403344,
      "componentType": 5123,
      "count": 304,
      "type": "VEC4"
    },
    {
      "bufferView": 4,
      "byteOffset": 806688,
      "componentType": 5126,
      "count": 304,
      "max": [
        1,
        0,
        0,
        0
      ],
      "min": [
        1,
        0,
        0,
        0
      ],
      "type": "VEC4"
    },
    {
      "bufferView": 0,
      "byteOffset": 405776,
      "componentType": 5123,
      "count": 5103,
      "type": "VEC4"
    },
    {
      "bufferView": 4,
      "byteOffset": 811552,
      "componentType": 5126,
      "count": 5103,
      "max": [
        1,
        0.43199580907821655,
        0.26831871271133423,
        0.19947902858257294
      ],
      "min": [
        0.3097710907459259,
        0,
        0,
        0
      ],
      "type": "VEC4"
    },
    {
      "bufferView": 0,
      "byteOffset": 446600,
      "componentType": 5123,
      "count": 3115,
      "type": "VEC4"
    },
    {
      "bufferView": 4,
      "byteOffset": 893200,
      "componentType": 5126,
      "count": 3115,
      "max": [
        1,
        0,
        0,
        0
      ],
      "min": [
        1,
        0,
        0,
        0
      ],
      "type": "VEC4"
    },
    {
      "bufferView": 0,
      "byteOffset": 471520,
      "componentType": 5123,
      "count": 651,
      "type": "VEC4"
    },
    {
      "bufferView": 4,
      "byteOffset": 943040,
      "componentType": 5126,
      "count": 651,
      "max": [
        1,
        0.06090830639004707,
        0,
        0
      ],
      "min": [
        0.9390917420387268,
        0,
        0,
        0
      ],
      "type": "VEC4"
    },
    {
      "bufferView": 0,
      "byteOffset": 476728,
      "componentType": 5123,
      "count": 640,
      "type": "VEC4"
    },
    {
      "bufferView": 4,
      "byteOffset": 953456,
      "componentType": 5126,
      "count": 640,
      "max": [
        0.9771894812583923,
        0.09891732782125473,
        0.08329659700393677,
        0
      ],
      "min": [
        0.8327807188034058,
        0.022810515016317368,
        0,
        0
      ],
      "type": "VEC4"
    },
    {
      "bufferView": 0,
      "byteOffset": 481848,
      "componentType": 5123,
      "count": 286,
      "type": "VEC4"
    },
    {
      "bufferView": 4,
      "byteOffset": 963696,
      "componentType": 5126,
      "count": 286,
      "max": [
        1,
        0,
        0,
        0
      ],
      "min": [
        1,
        0,
        0,
        0
      ],
      "type": "VEC4"
    },
    {
      "bufferView": 0,
      "byteOffset": 484136,
      "componentType": 5123,
      "count": 345,
      "type": "VEC4"
    },
    {
      "bufferView": 4,
      "byteOffset": 968272,
      "componentType": 5126,
      "count": 345,
      "max": [
        1,
        0.05821840465068817,
        0,
        0
      ],
      "min": [
        0.9417815804481506,
        0,
        0,
        0
      ],
      "type": "VEC4"
    },
    {
      "bufferView": 0,
      "byteOffset": 486896,
      "componentType": 5123,
      "count": 638,
      "type": "VEC4"
    },
    {
      "bufferView": 4,
      "byteOffset": 973792,
      "componentType": 5126,
      "count": 638,
      "max": [
        1,
        0.4623159170150757,
        0.324685662984848,
        0.037110574543476105
      ],
      "min": [
        0.3388787806034088,
        0,
        0,
        0
      ],
      "type": "VEC4"
    }
  ],
  "asset": {
    "extras": {
      "author": "Skulls_Face (https://sketchfab.com/Skulls_Face)",
      "license": "CC-BY-4.0 (http://creativecommons.org/licenses/by/4.0/)",
      "source": "https://sketchfab.com/3d-models/kakashi-43134aa44849492ab0d1fb99f4c4e22b",
      "title": "Kakashi"
    },
    "generator": "Sketchfab-16.16.0",
    "version": "2.0"
  },
  "bufferViews": [
    {
      "buffer": 0,
      "byteLength": 492000,
      "byteStride": 8,
      "name": "shortBufferViews",
      "target": 34962,
      "byteOffset": 0
    },
    {
      "buffer": 0,
      "byteLength": 1164432,
      "byteOffset": 492000,
      "name": "floatBufferViews",
      "target": 34963
    },
    {
      "buffer": 0,
      "byteLength": 492000,
      "byteOffset": 1656432,
      "byteStride": 8,
      "name": "floatBufferViews",
      "target": 34962
    },
    {
      "buffer": 0,
      "byteLength": 1476000,
      "byteOffset": 2148432,
      "byteStride": 12,
      "name": "floatBufferViews",
      "target": 34962
    },
    {
      "buffer": 0,
      "byteLength": 984000,
      "byteOffset": 3624432,
      "byteStride": 16,
      "name": "floatBufferViews",
      "target": 34962
    },
    {
      "buffer": 0,
      "byteLength": 5696,
      "byteOffset": 4608432,
      "name": "floatBufferViews"
    }
  ],
  "buffers": [
    {
      "uri": "kakashi_data.bin",
      "byteLength": 4614128
    }
  ],
  "extensionsUsed": [
    "KHR_materials_specular"
  ],
  "images": [
    {
      "uri": "kakashi_img0.png"
    },
    {
      "uri": "kakashi_img1.png"
    },
    {
      "uri": "kakashi_img2.png"
    }
  ],
  "materials": [
    {
      "doubleSided": true,
      "name": "Kakashi_Leg",
      "pbrMetallicRoughness": {
        "baseColorTexture": {
          "index": 0
        },
        "metallicFactor": 0,
        "roughnessFactor": 0.8211145618000169
      }
    },
    {
      "doubleSided": true,
      "extensions": {
        "KHR_materials_specular": {
          "specularColorFactor": [
            1,
            1,
            1
          ],
          "specularFactor": 1
        }
      },
      "name": "Metalic",
      "pbrMetallicRoughness": {
        "baseColorFactor": [
          0.496933,
          0.508881,
          0.552011,
          1
        ],
        "metallicFactor": 0.9980982799185673
      }
    },
    {
      "doubleSided": true,
      "name": "Hair_Color",
      "pbrMetallicRoughness": {
        "baseColorFactor": [
          0.630757,
          0.658375,
          0.723055,
          1
        ],
        "metallicFactor": 0,
        "roughnessFactor": 0.8530515807630312
      }
    },
    {
      "doubleSided": true,
      "name": "Kakashi_Chest",
      "pbrMetallicRoughness": {
        "baseColorTexture": {
          "index": 1
        },
        "metallicFactor": 0,
        "roughnessFactor": 0.8211145618000169
      }
    },
    {
      "doubleSided": true,
      "name": "Kakashi_Head",
      "pbrMetallicRoughness": {
        "baseColorTexture": {
          "index": 2
        },
        "metallicFactor": 0,
        "roughnessFactor": 0.8211145618000169
      }
    },
    {
      "doubleSided": true,
      "name": "Metallic",
      "pbrMetallicRoughness": {
        "baseColorTexture": {
          "index": 2
        }
      }
    }
  ],
  "meshes": [
    {
      "name": "BackPack_Kakashi Leg_0",
      "primitives": [
        {
          "attributes": {
            "JOINTS_0": 89,
            "NORMAL": 1,
            "POSITION": 0,
            "TEXCOORD_0": 2,
            "WEIGHTS_0": 90
          },
          "indices": 3,
          "material": 0,
          "mode": 4
        }
      ]
    },
    {
      "name": "BackPack_Metalic_0",
      "primitives": [
        {
          "attributes": {
            "JOINTS_0": 91,
            "NORMAL": 5,
            "POSITION": 4,
            "TEXCOORD_0": 6,
            "WEIGHTS_0": 92
          },
          "indices": 7,
          "material": 1,
          "mode": 4
        }
      ]
    },
    {
      "name": "LegPack_Kakashi Leg_0",
      "primitives": [
        {
          "attributes": {
            "JOINTS_0": 93,
            "NORMAL": 9,
            "POSITION": 8,
            "TEXCOORD_0": 10,
            "WEIGHTS_0": 94
          },
          "indices": 11,
          "material": 0,
          "mode": 4
        }
      ]
    },
    {
      "name": "LegPack_Metalic_0",
      "primitives": [
        {
          "attributes": {
            "JOINTS_0": 95,
            "NORMAL": 13,
            "POSITION": 12,
            "TEXCOORD_0": 14,
            "WEIGHTS_0": 96
          },
          "indices": 15,
          "material": 1,
          "mode": 4
        }
      ]
    },
    {
      "name": "Back_Hair_Hair Color_0",
      "primitives": [
        {
          "attributes": {
            "JOINTS_0": 97,
            "NORMAL": 17,
            "POSITION": 16,
            "TEXCOORD_0": 18,
            "WEIGHTS_0": 98
          },
          "indices": 19,
          "material": 2,
          "mode": 4
        }
      ]
    },
    {
      "name": "UpperHair_Hair Color_0",
      "primitives": [
        {
          "attributes": {
            "JOINTS_0": 99,
            "NORMAL": 21,
            "POSITION": 20,
            "TEXCOORD_0": 22,
            "WEIGHTS_0": 100
          },
          "indices": 23,
          "material": 2,
          "mode": 4
        }
      ]
    },
    {
      "name": "Chest_Kakashi Chest_0",
      "primitives": [
        {
          "attributes": {
            "JOINTS_0": 101,
            "NORMAL": 25,
            "POSITION": 24,
            "TEXCOORD_0": 26,
            "WEIGHTS_0": 102
          },
          "indices": 27,
          "material": 3,
          "mode": 4
        }
      ]
    },
    {
      "name": "Neck_Kakashi Chest_0",
      "primitives": [
        {
          "attributes": {
            "JOINTS_0": 103,
            "NORMAL": 29,
            "POSITION": 28,
            "TEXCOORD_0": 30,
            "WEIGHTS_0": 104
          },
          "indices": 31,
          "material": 3,
          "mode": 4
        }
      ]
    },
    {
      "name": "Shoulder_Kakashi Chest_0",
      "primitives": [
        {
          "attributes": {
            "JOINTS_0": 105,
            "NORMAL": 33,
            "POSITION": 32,
            "TEXCOORD_0": 34,
            "WEIGHTS_0": 106
          },
          "indices": 35,
          "material": 3,
          "mode": 4
        }
      ]
    },
    {
      "name": "Leg_Kakashi Leg_0",
      "primitives": [
        {
          "attributes": {
            "JOINTS_0": 107,
            "NORMAL": 37,
            "POSITION": 36,
            "TEXCOORD_0": 38,
            "WEIGHTS_0": 108
          },
          "indices": 39,
          "material": 0,
          "mode": 4
        }
      ]
    },
    {
      "name": "Foot_Kakashi Leg_0",
      "primitives": [
        {
          "attributes": {
            "JOINTS_0": 109,
            "NORMAL": 41,
            "POSITION": 40,
            "TEXCOORD_0": 42,
            "WEIGHTS_0": 110
          },
          "indices": 43,
          "material": 0,
          "mode": 4
        }
      ]
    },
    {
      "name": "Toes_Kakashi Leg_0",
      "primitives": [
        {
          "attributes": {
            "JOINTS_0": 111,
            "NORMAL": 45,
            "POSITION": 44,
            "TEXCOORD_0": 46,
            "WEIGHTS_0": 112
          },
          "indices": 47,
          "material": 0,
          "mode": 4
        }
      ]
    },
    {
      "name": "Gloves_Kakashi Chest_0",
      "primitives": [
        {
          "attributes": {
            "JOINTS_0": 113,
            "NORMAL": 49,
            "POSITION": 48,
            "TEXCOORD_0": 50,
            "WEIGHTS_0": 114
          },
          "indices": 51,
          "material": 3,
          "mode": 4
        }
      ]
    },
    {
      "name": "Hand_Kakashi Chest_0",
      "primitives": [
        {
          "attributes": {
            "JOINTS_0": 115,
            "NORMAL": 53,
            "POSITION": 52,
            "TEXCOORD_0": 54,
            "WEIGHTS_0": 116
          },
          "indices": 55,
          "material": 3,
          "mode": 4
        }
      ]
    },
    {
      "name": "Bandit_Kakashi Head_0",
      "primitives": [
        {
          "attributes": {
            "JOINTS_0": 117,
            "NORMAL": 57,
            "POSITION": 56,
            "TEXCOORD_0": 58,
            "WEIGHTS_0": 118
          },
          "indices": 59,
          "material": 4,
          "mode": 4
        }
      ]
    },
    {
      "name": "Face_Kakashi Head_0",
      "primitives": [
        {
          "attributes": {
            "JOINTS_0": 119,
            "NORMAL": 61,
            "POSITION": 60,
            "TEXCOORD_0": 62,
            "WEIGHTS_0": 120
          },
          "indices": 63,
          "material": 4,
          "mode": 4
        }
      ]
    },
    {
      "name": "Tie_Kakashi Head_0",
      "primitives": [
        {
          "attributes": {
            "JOINTS_0": 121,
            "NORMAL": 65,
            "POSITION": 64,
            "TEXCOORD_0": 66,
            "WEIGHTS_0": 122
          },
          "indices": 67,
          "material": 4,
          "mode": 4
        }
      ]
    },
    {
      "name": "Ear_Kakashi Head_0",
      "primitives": [
        {
          "attributes": {
            "JOINTS_0": 123,
            "NORMAL": 69,
            "POSITION": 68,
            "TEXCOORD_0": 70,
            "WEIGHTS_0": 124
          },
          "indices": 71,
          "material": 4,
          "mode": 4
        }
      ]
    },
    {
      "name": "Chest.001_Kakashi Chest_0",
      "primitives": [
        {
          "attributes": {
            "JOINTS_0": 125,
            "NORMAL": 73,
            "POSITION": 72,
            "TEXCOORD_0": 74,
            "WEIGHTS_0": 126
          },
          "indices": 75,
          "material": 3,
          "mode": 4
        }
      ]
    },
    {
      "name": "Leg.002_Kakashi Leg_0",
      "primitives": [
        {
          "attributes": {
            "JOINTS_0": 127,
            "NORMAL": 77,
            "POSITION": 76,
            "TEXCOORD_0": 78,
            "WEIGHTS_0": 128
          },
          "indices": 79,
          "material": 0,
          "mode": 4
        }
      ]
    },
    {
      "name": "HeadPlate_Metallic_0",
      "primitives": [
        {
          "attributes": {
            "JOINTS_0": 129,
            "NORMAL": 81,
            "POSITION": 80,
            "TEXCOORD_0": 82,
            "WEIGHTS_0": 130
          },
          "indices": 83,
          "material": 5,
          "mode": 4
        }
      ]
    },
    {
      "name": "HandPlate_Kakashi Chest_0",
      "primitives": [
        {
          "attributes": {
            "JOINTS_0": 131,
            "NORMAL": 85,
            "POSITION": 84,
            "TEXCOORD_0": 86,
            "WEIGHTS_0": 132
          },
          "indices": 87,
          "material": 3,
          "mode": 4
        }
      ]
    }
  ],
  "nodes": [
    {
      "children": [
        1
      ],
      "matrix": [
        1,
        0,
        0,
        0,
        0,
        2.220446049250313e-16,
        -1,
        0,
        0,
        1,
        2.220446049250313e-16,
        0,
        0,
        0,
        0,
        1
      ],
      "name": "Sketchfab_model"
    },
    {
      "children": [
        2
      ],
      "matrix": [
        0.009999999776482582,
        0,
        0,
        0,
        0,
        0,
        0.009999999776482582,
        0,
        0,
        -0.009999999776482582,
        0,
        0,
        0,
        0,
        0,
        1
      ],
      "name": "3f8c42d9927142bd99f25b4fd5e6f2b1.fbx"
    },
    {
      "children": [
        3
      ],
      "name": "RootNode"
    },
    {
      "children": [
        4
      ],
      "matrix": [
        -99.9999999999996,
        -0.000008742277980456488,
        0,
        0,
        -1.4242978711041864e-12,
        0.000016292067994694293,
        99.99999999999865,
        0,
        -0.00000874227798045637,
        99.99999999999828,
        -0.000016292067983592062,
        0,
        0,
        135.52528381347656,
        0,
        1
      ],
      "name": "Armature"
    },
    {
      "children": [
        5,
        7,
        8,
        10,
        11,
        13,
        15,
        17,
        19,
        21,
        23,
        25,
        27,
        29,
        31,
        33,
        35,
        37,
        39,
        41,
        43,
        45,
        47,
        6,
        9,
        12,
        14,
        16,
        18,
        20,
        22,
        24,
        26,
        28,
        30,
        32,
        34,
        36,
        38,
        40,
        42,
        44,
        46
      ],
      "name": "Object_4"
    },
    {
      "children": [
        48,
        108,
        122,
        125,
        127,
        129,
        132,
        134
      ],
      "name": "_rootJoint"
    },
    {
      "matrix": [
        -92.78162411427999,
        -5.331174860623536e-8,
        -37.30376486255755,
        0,
        -37.30376657606361,
        -1.555587979169711e-7,
        92.78162837609848,
        0,
        -1.074927870519041e-7,
        100.0000021072025,
        1.244426777669126e-7,
        0,
        -15.661872612600192,
        144.36992687385813,
        18.267002372552998,
        1
      ],
      "name": "Object_6"
    },
    {
      "mesh": 0,
      "name": "Object_7",
      "skin": 0
    },
    {
      "mesh": 1,
      "name": "Object_8",
      "skin": 0
    },
    {
      "matrix": [
        -100.00000000000568,
        1.2246467991474228e-14,
        1.0593399258924246e-13,
        0,
        1.0593399483497463e-13,
        -1.244426871634326e-7,
        100.0000021343272,
        0,
        1.2246468381358518e-14,
        100.0000021072025,
        1.244426871296779e-7,
        0,
        27.478696345827736,
        113.08133779042444,
        1.2940292055373828,
        1
      ],
      "name": "Object_9"
    },
    {
      "mesh": 2,
      "name": "Object_10",
      "skin": 0
    },
    {
      "mesh": 3,
      "name": "Object_11",
      "skin": 0
    },
    {
      "matrix": [
        -110.89606285095846,
        1.3580850840846999e-14,
        1.1747663253422125e-13,
        0,
        1.2246463715203862e-14,
        100.00000251398885,
        -0.000004327359125499253,
        0,
        -1.0593400079948191e-13,
        -0.000004327359126673046,
        -100.00000254111376,
        0,
        -74.7484589053789,
        276.7143934922382,
        -0.000019187815713195278,
        1
      ],
      "name": "Object_12"
    },
    {
      "mesh": 4,
      "name": "Object_13",
      "skin": 0
    },
    {
      "matrix": [
        -100.00000000000568,
        1.2246467991474228e-14,
        1.0593399258924246e-13,
        0,
        1.0593399483497463e-13,
        -1.244426871634326e-7,
        100.0000021343272,
        0,
        1.2246468381358518e-14,
        100.0000021072025,
        1.244426871296779e-7,
        0,
        -3.4472252842377316,
        256.8223567425457,
        -0.8691631101802688,
        1
      ],
      "name": "Object_14"
    },
    {
      "mesh": 5,
      "name": "Object_15",
      "skin": 0
    },
    {
      "matrix": [
        -100.00000000000568,
        1.2246467991474228e-14,
        1.0593399258924246e-13,
        0,
        1.0593399483497463e-13,
        -1.244426871634326e-7,
        100.0000021343272,
        0,
        1.2246468381358518e-14,
        100.0000021072025,
        1.244426871296779e-7,
        0,
        0,
        135.5252863373304,
        3.3560994872061656e-7,
        1
      ],
      "name": "Object_16"
    },
    {
      "mesh": 6,
      "name": "Object_17",
      "skin": 0
    },
    {
      "matrix": [
        -100.00000000000568,
        1.2246467991474228e-14,
        1.0593399258924246e-13,
        0,
        1.0593399483497463e-13,
        -1.244426871634326e-7,
        100.0000021343272,
        0,
        1.2246468381358518e-14,
        100.0000021072025,
        1.244426871296779e-7,
        0,
        0,
        232.47713711023624,
        3.8478063169866736,
        1
      ],
      "name": "Object_18"
    },
    {
      "mesh": 7,
      "name": "Object_19",
      "skin": 0
    },
    {
      "matrix": [
        -100.00000000000568,
        1.2246467991474228e-14,
        1.0593399258924246e-13,
        0,
        1.0593399483497463e-13,
        -1.244426871634326e-7,
        100.0000021343272,
        0,
        1.2246468381358518e-14,
        100.0000021072025,
        1.244426871296779e-7,
        0,
        0,
        232.47713711023624,
        3.8478063169866736,
        1
      ],
      "name": "Object_20"
    },
    {
      "mesh": 8,
      "name": "Object_21",
      "skin": 0
    },
    {
      "matrix": [
        -100.00000000000568,
        1.2246467991474228e-14,
        1.0593399258924246e-13,
        0,
        1.0593399483497463e-13,
        -1.244426871634326e-7,
        100.0000021343272,
        0,
        1.2246468381358518e-14,
        100.0000021072025,
        1.244426871296779e-7,
        0,
        0,
        135.9128701836688,
        3.3736862503630505e-7,
        1
      ],
      "name": "Object_22"
    },
    {
      "mesh": 9,
      "name": "Object_23",
      "skin": 0
    },
    {
      "matrix": [
        -100.00000000000568,
        1.2246467991474228e-14,
        1.0593399258924246e-13,
        0,
        1.0593399483497463e-13,
        -1.244426871634326e-7,
        100.0000021343272,
        0,
        1.2246468381358518e-14,
        100.0000021072025,
        1.244426871296779e-7,
        0,
        0,
        135.9128701836688,
        3.3736862503630505e-7,
        1
      ],
      "name": "Object_24"
    },
    {
      "mesh": 10,
      "name": "Object_25",
      "skin": 0
    },
    {
      "matrix": [
        -100.00000000000568,
        1.2246467991474228e-14,
        1.0593399258924246e-13,
        0,
        1.0593399483497463e-13,
        -1.244426871634326e-7,
        100.0000021343272,
        0,
        1.2246468381358518e-14,
        100.0000021072025,
        1.244426871296779e-7,
        0,
        0,
        135.91287002696734,
        0.44269790002241294,
        1
      ],
      "name": "Object_26"
    },
    {
      "mesh": 11,
      "name": "Object_27",
      "skin": 0
    },
    {
      "matrix": [
        -0.00000754978976866789,
        -100.00000210720268,
        -1.2444089669827465e-7,
        0,
        1.5732449368506282e-12,
        -1.2444089673214742e-7,
        100.0000021343272,
        0,
        -100.00000000000585,
        0.000007549789609578962,
        1.5826399289635562e-12,
        0,
        -81.31598330637067,
        209.2963265210425,
        -0.000010369150554190298,
        1
      ],
      "name": "Object_28"
    },
    {
      "mesh": 12,
      "name": "Object_29",
      "skin": 0
    },
    {
      "matrix": [
        -100.00000000000568,
        1.2246467991474228e-14,
        1.0593399258924246e-13,
        0,
        1.0593399483497463e-13,
        -1.244426871634326e-7,
        100.0000021343272,
        0,
        1.2246468381358518e-14,
        100.0000021072025,
        1.244426871296779e-7,
        0,
        -113.66742842076111,
        208.71381317862424,
        4.315827829004711,
        1
      ],
      "name": "Object_30"
    },
    {
      "mesh": 13,
      "name": "Object_31",
      "skin": 0
    },
    {
      "matrix": [
        -100.00000000000568,
        1.2246467991474228e-14,
        1.0593399258924246e-13,
        0,
        1.0593399483497463e-13,
        -1.244426871634326e-7,
        100.0000021343272,
        0,
        1.2246468381358518e-14,
        100.0000021072025,
        1.244426871296779e-7,
        0,
        0,
        135.5252863373304,
        3.3560994872061656e-7,
        1
      ],
      "name": "Object_32"
    },
    {
      "mesh": 14,
      "name": "Object_33",
      "skin": 0
    },
    {
      "matrix": [
        -100.00000000000568,
        1.2246467991474228e-14,
        1.0593399258924246e-13,
        0,
        1.0593399483497463e-13,
        -1.244426871634326e-7,
        100.0000021343272,
        0,
        1.2246468381358518e-14,
        100.0000021072025,
        1.244426871296779e-7,
        0,
        0,
        241.90441116968628,
        0.0000012754561007355392,
        1
      ],
      "name": "Object_34"
    },
    {
      "mesh": 15,
      "name": "Object_35",
      "skin": 0
    },
    {
      "matrix": [
        -44.464742053547546,
        -49.956165327600196,
        0.000006329196767573819,
        0,
        0.0000064019474273510535,
        0.0000027749559166924133,
        66.87848602167645,
        0,
        -49.95616641452809,
        44.46474302099545,
        0.000002937103708714702,
        0,
        0.15758635814080435,
        246.52099232058242,
        15.411633109820684,
        1
      ],
      "name": "Object_36"
    },
    {
      "mesh": 16,
      "name": "Object_37",
      "skin": 0
    },
    {
      "matrix": [
        -0.00000754978976866789,
        -100.00000210720268,
        -1.2444089669827465e-7,
        0,
        1.5732449368506282e-12,
        -1.2444089673214742e-7,
        100.0000021343272,
        0,
        -100.00000000000585,
        0.000007549789609578962,
        1.5826399289635562e-12,
        0,
        10.285389222976171,
        242.75583175941208,
        -0.000001154118324464548,
        1
      ],
      "name": "Object_38"
    },
    {
      "mesh": 17,
      "name": "Object_39",
      "skin": 0
    },
    {
      "matrix": [
        -100.00000000000568,
        1.2246467991474228e-14,
        1.0593399258924246e-13,
        0,
        1.0593399483497463e-13,
        -1.244426871634326e-7,
        100.0000021343272,
        0,
        1.2246468381358518e-14,
        100.0000021072025,
        1.244426871296779e-7,
        0,
        -5.908445564578457,
        142.0234142443426,
        9.222175913640033,
        1
      ],
      "name": "Object_40"
    },
    {
      "mesh": 18,
      "name": "Object_41",
      "skin": 0
    },
    {
      "matrix": [
        -100.00000000000568,
        1.2246467991474228e-14,
        1.0593399258924246e-13,
        0,
        1.0593399483497463e-13,
        -1.244426871634326e-7,
        100.0000021343272,
        0,
        1.2246468381358518e-14,
        100.0000021072025,
        1.244426871296779e-7,
        0,
        0,
        135.9128701836688,
        3.3736862503630505e-7,
        1
      ],
      "name": "Object_42"
    },
    {
      "mesh": 19,
      "name": "Object_43",
      "skin": 0
    },
    {
      "matrix": [
        -94.20701192566072,
        -33.541597805284574,
        0.000004307839924333478,
        0,
        0.000004353472705304539,
        6.158426611933001e-7,
        100.00000220212391,
        0,
        -33.54159982109201,
        94.20701758738262,
        8.800573696127858e-7,
        0,
        -0.4221276642841332,
        250.8354563517276,
        -13.826195766824942,
        1
      ],
      "name": "Object_44"
    },
    {
      "mesh": 20,
      "name": "Object_45",
      "skin": 0
    },
    {
      "matrix": [
        -100.00000000000568,
        1.2246467991474228e-14,
        1.0593399258924246e-13,
        0,
        1.0593399483497463e-13,
        -1.244426871634326e-7,
        100.0000021343272,
        0,
        1.2246468381358518e-14,
        100.0000021072025,
        1.244426871296779e-7,
        0,
        -102.09232547387856,
        211.86483222043188,
        5.196733097468537,
        1
      ],
      "name": "Object_46"
    },
    {
      "mesh": 21,
      "name": "Object_47",
      "skin": 0
    },
    {
      "children": [
        49
      ],
      "name": "Spine_01",
      "rotation": [
        0.6741674542427063,
        8.804543227824979e-8,
        8.036702325853184e-8,
        0.7385785579681396
      ],
      "translation": [
        0,
        2.6469779601696886e-23,
        0.2930988073348999
      ]
    },
    {
      "children": [
        50
      ],
      "name": "Spine.001_02",
      "rotation": [
        3.725290298461914e-9,
        3.83026943495679e-15,
        8.88178366760566e-16,
        1
      ],
      "translation": [
        -4.440892098500626e-16,
        0.1934138834476471,
        1.862645149230957e-9
      ]
    },
    {
      "children": [
        51,
        54,
        81
      ],
      "name": "Spine.002_03",
      "rotation": [
        1.862645149230957e-8,
        2.7755578262606874e-16,
        4.884981308350689e-15,
        1
      ],
      "translation": [
        -2.6469779601696886e-23,
        0.1934138685464859,
        0
      ]
    },
    {
      "children": [
        52
      ],
      "name": "Neck_04",
      "rotation": [
        0.14045441150665283,
        2.8393399895240874e-14,
        3.3486948325389676e-8,
        0.9900871515274048
      ],
      "scale": [
        1,
        0.9999999403953552,
        1
      ],
      "translation": [
        8.881784197001252e-16,
        0.19341403245925903,
        -3.725290298461914e-9
      ]
    },
    {
      "children": [
        53
      ],
      "name": "Head_05",
      "rotation": [
        0.009149163030087948,
        -3.641828998741589e-14,
        2.1813302275575097e-9,
        0.9999581575393677
      ],
      "scale": [
        1,
        1,
        0.9999999403953552
      ],
      "translation": [
        -8.881784197001252e-16,
        0.10422024130821228,
        -3.725290298461914e-9
      ]
    },
    {
      "name": "Head_end_069",
      "rotation": [
        -2.7755575615628914e-17,
        -5.293955920339377e-23,
        -1.4693679385278594e-39,
        1
      ],
      "translation": [
        2.6469779601696886e-23,
        0.24850033223628998,
        1.1102230246251565e-16
      ]
    },
    {
      "children": [
        55
      ],
      "name": "Shoulder.R_06",
      "rotation": [
        -0.0330590195953846,
        -0.0006323981797322631,
        0.8377833962440491,
        0.5450006127357483
      ],
      "scale": [
        0.9999999403953552,
        1,
        1
      ],
      "translation": [
        8.881784197001252e-16,
        0.19341403245925903,
        -3.725290298461914e-9
      ]
    },
    {
      "children": [
        56
      ],
      "name": "Arm.R_07",
      "rotation": [
        -0.009128131903707981,
        -0.04619390144944191,
        -0.19024187326431274,
        0.9806073904037476
      ],
      "scale": [
        0.9999996423721313,
        1.0000001192092896,
        0.9999999403953552
      ],
      "translation": [
        1.2014061212539673e-7,
        0.2762158215045929,
        6.51925802230835e-9
      ]
    },
    {
      "children": [
        57,
        62,
        67,
        72,
        77
      ],
      "name": "Forarm.R_08",
      "rotation": [
        0.05740707367658615,
        -0.0027866587042808533,
        -0.008596557192504406,
        0.9983099699020386
      ],
      "scale": [
        0.9999999403953552,
        0.9999998807907104,
        0.9999999403953552
      ],
      "translation": [
        -1.164153662358558e-9,
        0.4029220640659332,
        1.0244548320770264e-8
      ]
    },
    {
      "children": [
        58
      ],
      "name": "Pinky.R.004_09",
      "rotation": [
        -0.23726649582386017,
        -5.1701118053415485e-8,
        -0.04514551907777786,
        0.970395028591156
      ],
      "scale": [
        0.9999999403953552,
        0.9999999403953552,
        0.9999998807907104
      ],
      "translation": [
        -1.618172973394394e-8,
        0.3229193389415741,
        -3.725290298461914e-9
      ]
    },
    {
      "children": [
        59
      ],
      "name": "Pinky.R_010",
      "rotation": [
        0.12341894209384918,
        -0.00010510576248634607,
        0.056875843554735184,
        0.9907234311103821
      ],
      "scale": [
        1,
        1,
        1.0000001192092896
      ],
      "translation": [
        -2.6891939342021942e-8,
        0.132267028093338,
        -4.6566128730773926e-8
      ]
    },
    {
      "children": [
        60
      ],
      "name": "Pinky.R.001_011",
      "rotation": [
        -0.043591126799583435,
        1.052345695029544e-7,
        -0.0021835442166775465,
        0.9990471601486206
      ],
      "translation": [
        1.0710209608078003e-8,
        0.055104710161685944,
        3.725290298461914e-9
      ]
    },
    {
      "children": [
        61
      ],
      "name": "Pinky.R.002_012",
      "rotation": [
        0.02530684694647789,
        -1.7223746340278012e-7,
        -0.006896913982927799,
        0.9996559619903564
      ],
      "translation": [
        -3.4924596548080444e-8,
        0.03865005820989609,
        4.0978193283081055e-8
      ]
    },
    {
      "name": "Pinky.R.002_end_070",
      "rotation": [
        1.3877787807814457e-17,
        -6.938893903907228e-18,
        3.469446951953614e-18,
        1
      ],
      "translation": [
        -4.440892098500626e-16,
        0.02594302035868168,
        0
      ]
    },
    {
      "children": [
        63
      ],
      "name": "Ring.R.003_013",
      "rotation": [
        -0.09656412154436111,
        1.4859873331829476e-8,
        -0.024967048317193985,
        0.9950135946273804
      ],
      "scale": [
        0.9999999403953552,
        1,
        0.9999999403953552
      ],
      "translation": [
        -1.618172973394394e-8,
        0.3229193389415741,
        -3.725290298461914e-9
      ]
    },
    {
      "children": [
        64
      ],
      "name": "Ring.R_014",
      "rotation": [
        0.029205981642007828,
        0.000029456954507622868,
        0.03739548102021217,
        0.998873770236969
      ],
      "scale": [
        0.9999999403953552,
        1,
        1
      ],
      "translation": [
        -4.3422915041446686e-8,
        0.13090379536151886,
        -1.862645149230957e-9
      ]
    },
    {
      "children": [
        65
      ],
      "name": "Ring.R.001_015",
      "rotation": [
        -0.013048634864389896,
        -6.631781790389368e-9,
        0.007460849359631538,
        0.9998870491981506
      ],
      "translation": [
        7.217749953269958e-8,
        0.05557207018136978,
        9.313225746154785e-9
      ]
    },
    {
      "children": [
        66
      ],
      "name": "Ring.R.002_016",
      "rotation": [
        -0.016541780903935432,
        -9.584792337591352e-8,
        -0.011671791784465313,
        0.999795138835907
      ],
      "scale": [
        0.9999999403953552,
        1,
        0.9999998807907104
      ],
      "translation": [
        2.7706846594810486e-8,
        0.04143739119172096,
        7.450580596923828e-9
      ]
    },
    {
      "name": "Ring.R.002_end_071",
      "rotation": [
        1.3877787807814457e-17,
        -6.938893903907228e-18,
        2.168404344971009e-18,
        1
      ],
      "translation": [
        0,
        0.029895242303609848,
        0
      ]
    },
    {
      "children": [
        68
      ],
      "name": "Middle.R.003_00",
      "rotation": [
        0.03629715368151665,
        1.4572559159375942e-8,
        -0.00818490982055664,
        0.9993075132369995
      ],
      "scale": [
        1,
        1.0000001192092896,
        0.9999999403953552
      ],
      "translation": [
        -1.618172973394394e-8,
        0.3229193389415741,
        -3.725290298461914e-9
      ]
    },
    {
      "children": [
        69
      ],
      "name": "Middle.R_017",
      "rotation": [
        -0.08986363559961319,
        0.000029523378543672152,
        0.025874387472867966,
        0.9956179261207581
      ],
      "scale": [
        0.9999999403953552,
        0.9999999403953552,
        1
      ],
      "translation": [
        5.227047950029373e-8,
        0.1372702419757843,
        -3.725290298461914e-9
      ]
    },
    {
      "children": [
        70
      ],
      "name": "Middle.R.001_018",
      "rotation": [
        -0.004886080510914326,
        -1.1205386840629217e-7,
        0.004687943030148745,
        0.999977171421051
      ],
      "scale": [
        1,
        1.0000001192092896,
        1
      ],
      "translation": [
        3.329478204250336e-8,
        0.05817778408527374,
        -5.587935447692871e-9
      ]
    },
    {
      "children": [
        71
      ],
      "name": "Middle.R.002_019",
      "rotation": [
        0.004920991603285074,
        -8.857460898070713e-8,
        -0.019333720207214355,
        0.999800980091095
      ],
      "scale": [
        1,
        1,
        0.9999999403953552
      ],
      "translation": [
        -3.4226104617118835e-8,
        0.04219536483287811,
        -1.862645149230957e-9
      ]
    },
    {
      "name": "Middle.R.002_end_072",
      "rotation": [
        3.469446951953614e-18,
        1.734723475976807e-18,
        3.686287386450715e-18,
        1
      ],
      "translation": [
        4.440892098500626e-16,
        0.03320389240980148,
        1.3877787807814457e-17
      ]
    },
    {
      "children": [
        73
      ],
      "name": "Pointer.R.003_020",
      "rotation": [
        0.15701918303966522,
        -0.000046472676331177354,
        0.009207392111420631,
        0.9875526428222656
      ],
      "scale": [
        0.9999999403953552,
        1,
        0.9999999403953552
      ],
      "translation": [
        -1.618172973394394e-8,
        0.3229193389415741,
        -3.725290298461914e-9
      ]
    },
    {
      "children": [
        74
      ],
      "name": "Pointer.R_021",
      "rotation": [
        -0.13450662791728973,
        0.0005456827930174768,
        0.0171061959117651,
        0.9907649755477905
      ],
      "scale": [
        1,
        1,
        0.9999999403953552
      ],
      "translation": [
        1.5086698113009334e-8,
        0.14337532222270966,
        -1.7462298274040222e-10
      ]
    },
    {
      "children": [
        75
      ],
      "name": "Pointer.R.001_022",
      "rotation": [
        -0.020133215934038162,
        -0.0000236657233472215,
        0.005147644784301519,
        0.9997840523719788
      ],
      "scale": [
        0.9999999403953552,
        0.9999998807907104,
        0.9999999403953552
      ],
      "translation": [
        5.575566319748759e-8,
        0.060588862746953964,
        -7.450580596923828e-9
      ]
    },
    {
      "children": [
        76
      ],
      "name": "Pointer.R.002_023",
      "rotation": [
        0.013017833232879639,
        0.00011138097033835948,
        -0.007372387684881687,
        0.9998881816864014
      ],
      "scale": [
        0.9999998807907104,
        0.9999999403953552,
        0.9999998807907104
      ],
      "translation": [
        7.792550604790449e-8,
        0.040287476032972336,
        -4.6566128730773926e-9
      ]
    },
    {
      "name": "Pointer.R.002_end_073",
      "rotation": [
        -6.938893903907228e-18,
        -1.734723475976807e-18,
        1.4094628242311558e-18,
        1
      ],
      "translation": [
        -4.440892098500626e-16,
        0.030457470566034317,
        0
      ]
    },
    {
      "children": [
        78
      ],
      "name": "Thumb.R.002_024",
      "rotation": [
        0.4337399899959564,
        6.827345089277514e-8,
        0.12441545724868774,
        0.8924071192741394
      ],
      "scale": [
        0.9999998807907104,
        1,
        1
      ],
      "translation": [
        -1.618172973394394e-8,
        0.3229193389415741,
        -3.725290298461914e-9
      ]
    },
    {
      "children": [
        79
      ],
      "name": "Thumb.R_025",
      "rotation": [
        -0.13510966300964355,
        0.0033584279008209705,
        -0.05070100352168083,
        0.9895269274711609
      ],
      "scale": [
        1,
        0.9999998211860657,
        0.9999998807907104
      ],
      "translation": [
        6.170012056827545e-8,
        0.10252299159765244,
        -1.30385160446167e-8
      ]
    },
    {
      "children": [
        80
      ],
      "name": "Thumb.R.001_026",
      "rotation": [
        -0.07435116171836853,
        0.007162982132285833,
        0.0299375019967556,
        0.9967570304870605
      ],
      "scale": [
        0.9999999403953552,
        1.0000001192092896,
        1.0000001192092896
      ],
      "translation": [
        -7.299240678548813e-8,
        0.042928848415613174,
        1.862645149230957e-8
      ]
    },
    {
      "name": "Thumb.R.001_end_074",
      "rotation": [
        -2.7755575615628914e-17,
        1.3877787807814457e-17,
        1.0408340855860843e-17,
        1
      ],
      "translation": [
        0,
        0.04543948546051979,
        5.551115123125783e-17
      ]
    },
    {
      "children": [
        82
      ],
      "name": "Shoulder.L_027",
      "rotation": [
        -0.0330587662756443,
        0.0006323032430373132,
        -0.8377833366394043,
        0.5450007319450378
      ],
      "scale": [
        0.9999999403953552,
        1,
        1
      ],
      "translation": [
        8.803624231793362e-16,
        0.19341403245925903,
        -3.725290298461914e-9
      ]
    },
    {
      "children": [
        83
      ],
      "name": "Arm.L_028",
      "rotation": [
        -0.009127411060035229,
        0.04619427025318146,
        0.1902419477701187,
        0.9806073307991028
      ],
      "scale": [
        0.9999998807907104,
        1.000000238418579,
        1.0000003576278687
      ],
      "translation": [
        -7.636845111846924e-8,
        0.2762158513069153,
        9.313225746154785e-10
      ]
    },
    {
      "children": [
        84,
        89,
        94,
        99,
        104
      ],
      "name": "Forarm.L_029",
      "rotation": [
        0.057405319064855576,
        0.0027867055032402277,
        0.00859628152102232,
        0.9983101487159729
      ],
      "scale": [
        0.9999999403953552,
        0.9999998807907104,
        0.9999998211860657
      ],
      "translation": [
        2.6542693376541138e-8,
        0.4029219448566437,
        3.725290298461914e-9
      ]
    },
    {
      "children": [
        85
      ],
      "name": "Pinky.L.004_030",
      "rotation": [
        -0.23726654052734375,
        7.232205234686262e-8,
        0.045145533978939056,
        0.970395028591156
      ],
      "scale": [
        1,
        1.0000001192092896,
        1.0000001192092896
      ],
      "translation": [
        8.568167686462402e-8,
        0.3229193091392517,
        3.725290298461914e-9
      ]
    },
    {
      "children": [
        86
      ],
      "name": "Pinky.L_031",
      "rotation": [
        0.12341894954442978,
        0.00010509103594813496,
        -0.05687583610415459,
        0.9907234311103821
      ],
      "scale": [
        1,
        1,
        1.0000001192092896
      ],
      "translation": [
        6.810296326875687e-8,
        0.13226714730262756,
        3.725290298461914e-8
      ]
    },
    {
      "children": [
        87
      ],
      "name": "Pinky.L.001_032",
      "rotation": [
        -0.043591130524873734,
        -1.0291194740830178e-7,
        0.0021835346706211567,
        0.9990471601486206
      ],
      "scale": [
        1,
        1,
        0.9999999403953552
      ],
      "translation": [
        4.7497451305389404e-8,
        0.05510462820529938,
        -7.450580596923828e-9
      ]
    },
    {
      "children": [
        88
      ],
      "name": "Pinky.L.002_033",
      "rotation": [
        0.025306839495897293,
        1.792157320323895e-7,
        0.0068969158455729485,
        0.9996559619903564
      ],
      "scale": [
        1,
        0.9999999403953552,
        1.0000001192092896
      ],
      "translation": [
        -5.122274160385132e-8,
        0.03864981606602669,
        9.313225746154785e-9
      ]
    },
    {
      "name": "Pinky.L.002_end_075",
      "rotation": [
        4.163336342344337e-17,
        6.938893903907228e-18,
        4.336808689942018e-18,
        1
      ],
      "translation": [
        0,
        0.02594302035868168,
        2.7755575615628914e-17
      ]
    },
    {
      "children": [
        90
      ],
      "name": "Ring.L.003_034",
      "rotation": [
        -0.09656413644552231,
        -7.355051234725352e-9,
        0.024967048317193985,
        0.9950135946273804
      ],
      "scale": [
        1,
        1.0000001192092896,
        1.0000001192092896
      ],
      "translation": [
        8.568167686462402e-8,
        0.3229193091392517,
        3.725290298461914e-9
      ]
    },
    {
      "children": [
        91
      ],
      "name": "Ring.L_035",
      "rotation": [
        0.029205983504652977,
        -0.000029397067919489928,
        -0.03739548102021217,
        0.998873770236969
      ],
      "scale": [
        0.9999999403953552,
        1,
        0.9999999403953552
      ],
      "translation": [
        9.057112038135529e-8,
        0.1309037208557129,
        -3.725290298461914e-9
      ]
    },
    {
      "children": [
        92
      ],
      "name": "Ring.L.001_036",
      "rotation": [
        -0.013048635795712471,
        -4.51794193168098e-8,
        -0.0074608465656638145,
        0.9998870491981506
      ],
      "scale": [
        1,
        0.9999999403953552,
        1
      ],
      "translation": [
        8.335337042808533e-8,
        0.05557205528020859,
        -7.450580596923828e-9
      ]
    },
    {
      "children": [
        93
      ],
      "name": "Ring.L.002_037",
      "rotation": [
        -0.01654178462922573,
        8.990700450794975e-8,
        0.011671780608594418,
        0.999795138835907
      ],
      "scale": [
        0.9999999403953552,
        1,
        0.9999998807907104
      ],
      "translation": [
        1.6065314412117004e-8,
        0.041437309235334396,
        1.862645149230957e-9
      ]
    },
    {
      "name": "Ring.L.002_end_076",
      "rotation": [
        1.3877787807814457e-17,
        1.2037062152420224e-35,
        8.673617379884035e-19,
        1
      ],
      "translation": [
        -4.440892098500626e-16,
        0.029895242303609848,
        0
      ]
    },
    {
      "children": [
        95
      ],
      "name": "Middle.L.003_038",
      "rotation": [
        0.03629714623093605,
        -6.984533396092729e-9,
        0.00818490982055664,
        0.9993075132369995
      ],
      "scale": [
        1,
        1.0000001192092896,
        1
      ],
      "translation": [
        8.568167686462402e-8,
        0.3229193091392517,
        3.725290298461914e-9
      ]
    },
    {
      "children": [
        96
      ],
      "name": "Middle.L_039",
      "rotation": [
        -0.0898636132478714,
        -0.000029514258130802773,
        -0.02587438002228737,
        0.9956179261207581
      ],
      "scale": [
        0.9999998807907104,
        1,
        1
      ],
      "translation": [
        1.4656689018011093e-7,
        0.1372702717781067,
        2.421438694000244e-8
      ]
    },
    {
      "children": [
        97
      ],
      "name": "Middle.L.001_040",
      "rotation": [
        -0.0048861014656722546,
        1.1909686037370193e-7,
        -0.004687946755439043,
        0.999977171421051
      ],
      "translation": [
        -2.514570951461792e-8,
        0.058177798986434937,
        1.862645149230957e-9
      ]
    },
    {
      "children": [
        98
      ],
      "name": "Middle.L.002_041",
      "rotation": [
        0.004920994862914085,
        1.2725259068702144e-7,
        0.019333725795149803,
        0.999800980091095
      ],
      "scale": [
        1,
        1,
        0.9999998211860657
      ],
      "translation": [
        3.3760443329811096e-8,
        0.04219551384449005,
        1.862645149230957e-9
      ]
    },
    {
      "name": "Middle.L.002_end_077",
      "rotation": [
        6.938893903907228e-18,
        1.734723475976807e-18,
        4.662069341687669e-18,
        1
      ],
      "translation": [
        4.440892098500626e-16,
        0.03320389240980148,
        -1.3877787807814457e-17
      ]
    },
    {
      "children": [
        100
      ],
      "name": "Pointer.L.003_042",
      "rotation": [
        0.1570192128419876,
        0.0000465310768049676,
        -0.009207386523485184,
        0.9875526428222656
      ],
      "scale": [
        1.0000001192092896,
        1,
        1
      ],
      "translation": [
        8.568167686462402e-8,
        0.3229193091392517,
        3.725290298461914e-9
      ]
    },
    {
      "children": [
        101
      ],
      "name": "Pointer.L_043",
      "rotation": [
        -0.13450656831264496,
        -0.0005457421648316085,
        -0.017106197774410248,
        0.9907649159431458
      ],
      "scale": [
        1,
        1,
        0.9999999403953552
      ],
      "translation": [
        6.8866943259138225e-9,
        0.14337526261806488,
        -1.3213139027357101e-8
      ]
    },
    {
      "children": [
        102
      ],
      "name": "Pointer.L.001_044",
      "rotation": [
        -0.020133236423134804,
        0.00002360458893235773,
        -0.005147643852978945,
        0.9997840523719788
      ],
      "scale": [
        0.9999998807907104,
        1,
        0.9999999403953552
      ],
      "translation": [
        -4.949106369167566e-8,
        0.06058879569172859,
        -7.450580596923828e-9
      ]
    },
    {
      "children": [
        103
      ],
      "name": "Pointer.L.002_045",
      "rotation": [
        0.013017837889492512,
        -0.00011137373803649098,
        0.007372384890913963,
        0.9998881816864014
      ],
      "scale": [
        1,
        1.0000001192092896,
        1.0000001192092896
      ],
      "translation": [
        1.6429112292826176e-8,
        0.04028765857219696,
        -6.51925802230835e-9
      ]
    },
    {
      "name": "Pointer.L.002_end_078",
      "rotation": [
        6.938893903907228e-18,
        -3.469446951953614e-18,
        -1.4094628242311558e-18,
        1
      ],
      "translation": [
        0,
        0.030457470566034317,
        0
      ]
    },
    {
      "children": [
        105
      ],
      "name": "Thumb.L.002_046",
      "rotation": [
        0.43373996019363403,
        8.088489522606324e-8,
        -0.12441540509462357,
        0.8924071192741394
      ],
      "scale": [
        1,
        1.0000001192092896,
        1
      ],
      "translation": [
        8.568167686462402e-8,
        0.3229193091392517,
        3.725290298461914e-9
      ]
    },
    {
      "children": [
        106
      ],
      "name": "Thumb.L_047",
      "rotation": [
        -0.13510967791080475,
        -0.003358556190505624,
        0.050700992345809937,
        0.9895269274711609
      ],
      "scale": [
        1.0000001192092896,
        0.9999999403953552,
        0.9999999403953552
      ],
      "translation": [
        7.986091077327728e-8,
        0.10252292454242706,
        4.284083843231201e-8
      ]
    },
    {
      "children": [
        107
      ],
      "name": "Thumb.L.001_048",
      "rotation": [
        -0.07435113936662674,
        -0.007163056638091803,
        -0.02993747778236866,
        0.9967570304870605
      ],
      "scale": [
        1,
        1.0000001192092896,
        1.0000001192092896
      ],
      "translation": [
        3.771856427192688e-8,
        0.042928993701934814,
        -1.1175870895385742e-8
      ]
    },
    {
      "name": "Thumb.L.001_end_079",
      "rotation": [
        -1.0833355937178202e-34,
        1.0408340855860843e-17,
        1.0408340855860843e-17,
        1
      ],
      "translation": [
        0,
        0.04543948546051979,
        -1.6653345369377348e-16
      ]
    },
    {
      "children": [
        109
      ],
      "name": "Belt_049",
      "rotation": [
        -0.7071068286895752,
        4.6792408719974255e-24,
        4.679239294275615e-24,
        0.7071067094802856
      ],
      "translation": [
        0,
        2.6469779601696886e-23,
        0.2930988073348999
      ]
    },
    {
      "children": [
        110,
        116
      ],
      "name": "Pelvis_050",
      "rotation": [
        0,
        0,
        6.617444900424222e-24,
        1
      ],
      "translation": [
        -1.3234889800848443e-23,
        0.1351846158504486,
        -1.3234889800848443e-23
      ]
    },
    {
      "children": [
        111
      ],
      "name": "Hip.R_051",
      "rotation": [
        -1.329868979382809e-7,
        7.652253053436198e-9,
        0.9174073934555054,
        0.39794933795928955
      ],
      "scale": [
        1.0000004768371582,
        1.0000001192092896,
        1
      ],
      "translation": [
        -1.3234889800848443e-23,
        0.2052803635597229,
        0
      ]
    },
    {
      "children": [
        112
      ],
      "name": "Leg.R_052",
      "rotation": [
        0.000977426185272634,
        -0.002253511920571327,
        0.9174045920372009,
        -0.3979482650756836
      ],
      "scale": [
        0.9999991655349731,
        1.0000005960464478,
        1
      ],
      "translation": [
        4.107825191113079e-15,
        0.186857208609581,
        6.217248937900877e-15
      ]
    },
    {
      "children": [
        113
      ],
      "name": "Calf.R_053",
      "rotation": [
        0.033456772565841675,
        -1.0407573469706222e-8,
        6.258158435912264e-10,
        0.9994401931762695
      ],
      "translation": [
        3.9016839536998305e-8,
        0.6369912028312683,
        -6.475708858033613e-12
      ]
    },
    {
      "children": [
        114
      ],
      "name": "Heel.R_054",
      "rotation": [
        -0.5085965394973755,
        2.743657887549489e-7,
        -1.573969115042928e-7,
        0.8610050082206726
      ],
      "translation": [
        1.0129863170504905e-8,
        0.6612692475318909,
        2.481232996842664e-10
      ]
    },
    {
      "children": [
        115
      ],
      "name": "Toe.R_055",
      "rotation": [
        -0.16027657687664032,
        3.642090860012104e-7,
        -1.5981331102921104e-7,
        0.9870721697807312
      ],
      "scale": [
        1,
        0.9999999403953552,
        0.9999999403953552
      ],
      "translation": [
        8.30216073666179e-9,
        0.1401147097349167,
        -3.2897133905862574e-8
      ]
    },
    {
      "name": "Toe.R_end_080",
      "rotation": [
        0,
        -1.3234889800848443e-23,
        2.6469779601696886e-23,
        1
      ],
      "translation": [
        0,
        0.12446963787078857,
        1.3877787807814457e-17
      ]
    },
    {
      "children": [
        117
      ],
      "name": "Hip.L_056",
      "rotation": [
        1.329868979382809e-7,
        7.652253053436198e-9,
        0.9174073934555054,
        -0.39794933795928955
      ],
      "scale": [
        1.0000004768371582,
        1.0000001192092896,
        1
      ],
      "translation": [
        -1.3234889800848443e-23,
        0.2052803635597229,
        0
      ]
    },
    {
      "children": [
        118
      ],
      "name": "Leg.L_057",
      "rotation": [
        -0.0009774408536031842,
        -0.002253505401313305,
        0.9174045920372009,
        0.3979482650756836
      ],
      "scale": [
        0.9999991655349731,
        1.0000005960464478,
        1
      ],
      "translation": [
        -3.9968028886505635e-15,
        0.186857208609581,
        6.217248937900877e-15
      ]
    },
    {
      "children": [
        119
      ],
      "name": "Calf.L_058",
      "rotation": [
        0.033456772565841675,
        1.04075770224199e-8,
        -6.258057405617024e-10,
        0.9994401931762695
      ],
      "translation": [
        -3.840085582851316e-8,
        0.6369912028312683,
        -6.106226635438361e-12
      ]
    },
    {
      "children": [
        120
      ],
      "name": "Heel.L_059",
      "rotation": [
        -0.508596658706665,
        -3.987133538885246e-7,
        1.8789465627833124e-7,
        0.8610048890113831
      ],
      "scale": [
        1.0000004768371582,
        1,
        1
      ],
      "translation": [
        -1.0204369793598289e-8,
        0.6612692475318909,
        8.598632916800852e-10
      ]
    },
    {
      "children": [
        121
      ],
      "name": "Toe.L_060",
      "rotation": [
        -0.16027653217315674,
        -3.6420914284462924e-7,
        1.598132683966469e-7,
        0.9870721697807312
      ],
      "scale": [
        1,
        0.9999999403953552,
        0.9999999403953552
      ],
      "translation": [
        1.716671427232086e-8,
        0.14011451601982117,
        -1.5269198172518372e-7
      ]
    },
    {
      "name": "Toe.L_end_081",
      "rotation": [
        5.605193857299268e-45,
        -6.617444900424221e-23,
        7.940933880509066e-23,
        1
      ],
      "translation": [
        0,
        0.12446963787078857,
        0
      ]
    },
    {
      "children": [
        123
      ],
      "name": "FootIK.R_061",
      "rotation": [
        0,
        6.617444900424222e-24,
        -1.5461785009925103e-30,
        1
      ],
      "scale": [
        1,
        0.9999999403953552,
        1
      ],
      "translation": [
        -0.1364363431930542,
        0.03785169497132301,
        -1.2166733741760254
      ]
    },
    {
      "children": [
        124
      ],
      "name": "KneeIK.R_062",
      "rotation": [
        1,
        -1.3721725375414641e-14,
        -3.1391647326017846e-7,
        -4.371138828673793e-8
      ],
      "translation": [
        0,
        -0.8374127149581909,
        0.6599981784820557
      ]
    },
    {
      "name": "KneeIK.R_end_082",
      "rotation": [
        2.6469779601696886e-23,
        -4.500350490090004e-23,
        6.310887241768095e-30,
        1
      ],
      "translation": [
        0,
        0.2988394498825073,
        0
      ]
    },
    {
      "children": [
        126
      ],
      "name": "Arm.PoleIK.R_063",
      "rotation": [
        3.780924238222332e-22,
        -0.672123372554779,
        3.968312655785683e-22,
        0.7404391765594482
      ],
      "translation": [
        -0.6542187929153442,
        0.229403555393219,
        0.740082859992981
      ]
    },
    {
      "name": "Arm.PoleIK.R_end_083",
      "rotation": [
        -1.6543612251060553e-24,
        -4.917324871012345e-18,
        1.3234889800848443e-23,
        1
      ],
      "translation": [
        0,
        0.14023751020431519,
        0
      ]
    },
    {
      "children": [
        128
      ],
      "name": "HandIK.R_064",
      "rotation": [
        2.921896869163425e-22,
        -0.6618563532829285,
        3.10942791277844e-22,
        0.7496306896209717
      ],
      "translation": [
        -0.9765149354934692,
        0.05349055677652359,
        0.7360843420028687
      ]
    },
    {
      "name": "HandIK.R_end_084",
      "rotation": [
        1.6543612251060553e-24,
        1.293916446005461e-17,
        -2.6469779601696886e-23,
        1
      ],
      "translation": [
        2.220446049250313e-16,
        0.150254487991333,
        2.220446049250313e-16
      ]
    },
    {
      "children": [
        130
      ],
      "name": "FootIK.L_065",
      "rotation": [
        0,
        6.617444900424222e-24,
        -1.5461785009925103e-30,
        1
      ],
      "scale": [
        1,
        0.9999999403953552,
        1
      ],
      "translation": [
        0.1364363431930542,
        0.03785169497132301,
        -1.2166733741760254
      ]
    },
    {
      "children": [
        131
      ],
      "name": "KneeIK.L_066",
      "rotation": [
        1,
        1.3721725375414641e-14,
        3.1391647326017846e-7,
        -4.371138828673793e-8
      ],
      "translation": [
        -2.7755575615628914e-17,
        -0.8374127149581909,
        0.6599981784820557
      ]
    },
    {
      "name": "KneeIK.L_end_085",
      "rotation": [
        -2.6469779601696886e-23,
        -7.936055091354636e-24,
        1.262177448353619e-29,
        1
      ],
      "translation": [
        0,
        0.2988394498825073,
        -1.1102230246251565e-16
      ]
    },
    {
      "children": [
        133
      ],
      "name": "Arm.PoleIK.L_067",
      "rotation": [
        3.780924238222332e-22,
        0.672123372554779,
        -3.968312655785683e-22,
        0.7404391765594482
      ],
      "translation": [
        0.6542187929153442,
        0.229403555393219,
        0.740082859992981
      ]
    },
    {
      "name": "Arm.PoleIK.L_end_086",
      "rotation": [
        1.6543612251060553e-24,
        4.917324871012345e-18,
        2.6469779601696886e-23,
        1
      ],
      "translation": [
        4.440892098500626e-16,
        0.14023751020431519,
        0
      ]
    },
    {
      "children": [
        135
      ],
      "name": "HandIK.L_068",
      "rotation": [
        2.214863937661137e-22,
        0.6618563532829285,
        -2.3086295856863893e-22,
        0.7496306896209717
      ],
      "translation": [
        0.9765149354934692,
        0.05349055677652359,
        0.7360843420028687
      ]
    },
    {
      "name": "HandIK.L_end_087",
      "rotation": [
        4.963083675318166e-24,
        7.877517251667075e-18,
        -3.9096227154662396e-41,
        1
      ],
      "translation": [
        4.440892098500626e-16,
        0.150254487991333,
        0
      ]
    }
  ],
  "samplers": [
    {
      "magFilter": 9729,
      "minFilter": 9987,
      "wrapS": 10497,
      "wrapT": 10497
    }
  ],
  "scene": 0,
  "scenes": [
    {
      "name": "Sketchfab_Scene",
      "nodes": [
        0
      ]
    }
  ],
  "skins": [
    {
      "inverseBindMatrices": 88,
      "joints": [
        5,
        48,
        49,
        50,
        51,
        52,
        53,
        54,
        55,
        56,
        57,
        58,
        59,
        60,
        61,
        62,
        63,
        64,
        65,
        66,
        67,
        68,
        69,
        70,
        71,
        72,
        73,
        74,
        75,
        76,
        77,
        78,
        79,
        80,
        81,
        82,
        83,
        84,
        85,
        86,
        87,
        88,
        89,
        90,
        91,
        92,
        93,
        94,
        95,
        96,
        97,
        98,
        99,
        100,
        101,
        102,
        103,
        104,
        105,
        106,
        107,
        108,
        109,
        110,
        111,
        112,
        113,
        114,
        115,
        116,
        117,
        118,
        119,
        120,
        121,
        122,
        123,
        124,
        125,
        126,
        127,
        128,
        129,
        130,
        131,
        132,
        133,
        134,
        135
      ],
      "skeleton": 5
    }
  ],
  "textures": [
    {
      "sampler": 0,
      "source": 0
    },
    {
      "sampler": 0,
      "source": 1
    },
    {
      "sampler": 0,
      "source": 2
    }
  ]
}